<?xml version="1.0" encoding="iso-8859-1"?>
<!-- Generator: Adobe Illustrator 19.0.0, SVG Export Plug-In . SVG Version: 6.00 Build 0)  -->
<svg version="1.1" id="Capa_1" xmlns="http://www.w3.org/2000/svg" xmlns:xlink="http://www.w3.org/1999/xlink" x="0px" y="0px"
	 viewBox="0 0 512.001 512.001" style="enable-background:new 0 0 512.001 512.001;" xml:space="preserve">
<g>
	<g>
		<path d="M384,0H29.539C21.382,0,14.77,6.613,14.77,14.769v123.077c0,8.157,6.613,14.769,14.769,14.769H78.77
			c8.157,0,14.769-6.613,14.769-14.769V93.538h59.077v324.923h-44.308c-8.157,0-14.769,6.613-14.769,14.769v64
			c0,8.157,6.613,14.769,14.769,14.769h196.923c8.157,0,14.769-6.613,14.769-14.769v-64c0-8.157-6.613-14.769-14.769-14.769h-44.308
			V93.538H320v44.308c0,8.157,6.613,14.769,14.769,14.769H384c8.157,0,14.769-6.613,14.769-14.769V14.769
			C398.77,6.613,392.157,0,384,0z"/>
	</g>
</g>
<g>
	<g>
		<path d="M495.38,450.687c-2.602-4.697-7.549-7.61-12.918-7.61h-9.846V73.846h9.846c5.369,0,10.316-2.913,12.918-7.61
			c2.602-4.696,2.452-10.435-0.394-14.988l-24.615-39.385c-2.7-4.318-7.432-6.941-12.524-6.941c-5.092,0-9.825,2.623-12.524,6.942
			l-24.615,39.385c-2.847,4.553-2.996,10.292-0.394,14.988s7.549,7.609,12.918,7.609h9.846v369.231h-9.846
			c-5.369,0-10.316,2.914-12.918,7.61c-2.602,4.696-2.452,10.435,0.394,14.988l24.615,39.385c2.699,4.318,7.432,6.942,12.524,6.942
			c5.092,0,9.826-2.623,12.524-6.942l24.615-39.385C497.833,461.122,497.982,455.383,495.38,450.687z"/>
	</g>
</g>
<g>
</g>
<g>
</g>
<g>
</g>
<g>
</g>
<g>
</g>
<g>
</g>
<g>
</g>
<g>
</g>
<g>
</g>
<g>
</g>
<g>
</g>
<g>
</g>
<g>
</g>
<g>
</g>
<g>
</g>
</svg>
