<svg height="512pt" viewBox="-50 0 511 512" width="512pt" xmlns="http://www.w3.org/2000/svg"><path d="m406.015625 304.40625-110.003906-90.003906c-4.488281-3.671875-10.683594-4.429688-15.921875-1.949219-5.238282 2.484375-8.578125 7.761719-8.578125 13.558594v30h-106.003907v-116.003907h30c5.796876 0 11.074219-3.339843 13.554688-8.578124 2.484375-5.238282 1.726562-11.4375-1.945312-15.921876l-90.003907-110.007812c-2.847656-3.480469-7.109375-5.5-11.609375-5.5s-8.761718 2.019531-11.609375 5.5l-90.003906 110.007812c-3.667969 4.484376-4.429687 10.683594-1.945313 15.921876 2.480469 5.238281 7.761719 8.578124 13.554688 8.578124h30.003906v357.015626c0 8.117187 6.449219 14.707031 14.5 14.976562h91.003906c8.050782-.265625 14.5-6.859375 14.5-14.976562v-121.003907h106.003907v30c0 5.796875 3.339843 11.070313 8.578125 13.554688 5.234375 2.480469 11.433594 1.726562 15.921875-1.945313l110.007812-90.003906c3.480469-2.851562 5.5-7.113281 5.5-11.609375 0-4.5-2.019531-8.761719-5.503906-11.609375zm0 0"/></svg>