<svg id="Out_line" height="512" viewBox="0 0 512 512" width="512" xmlns="http://www.w3.org/2000/svg" data-name="Out line"><path d="m472 87.20117h-168v16h136a8.00917 8.00917 0 0 1 8 8v240a8.00917 8.00917 0 0 1 -8 8h-400a8.00917 8.00917 0 0 1 -8-8v-240a8.00917 8.00917 0 0 1 8-8h136v-16h-136a24.0275 24.0275 0 0 0 -24 24v240a24.0275 24.0275 0 0 0 24 24h170.31714l18.0061 26.40918a34.27934 34.27934 0 0 1 -28.32324 53.59082 8 8 0 0 0 0 16h136a50.28012 50.28012 0 0 0 41.543-78.60449l-11.85986-17.39551h106.31686a24.0275 24.0275 0 0 0 24-24v-240a24.0275 24.0275 0 0 0 -24-24zm-172.791 288 3.4004 6.35059c.12109.22656.2539.44726.39648.66113a5.7821 5.7821 0 0 1 -4.81055 8.98828 18.58564 18.58564 0 0 1 -15.39648-8.14551l-4.69629-7.85449zm65.11426 26.40918a34.27934 34.27934 0 0 1 -28.32326 53.59082h-99.123a51.64862 51.64862 0 0 0 7.57715-10.78711 52.778 52.778 0 0 0 2.39844-5.21289h33.14741v-16h-29.65283a49.78761 49.78761 0 0 0 -8.8042-30.60449l-11.85986-17.39551h29.77954l9.71313 16.24805c.06738.11328.13672.22363.21.333a34.55528 34.55528 0 0 0 28.80957 15.41894 21.77438 21.77438 0 0 0 19.228-32h28.8938zm115.67674-50.40918a8.00917 8.00917 0 0 1 -8 8h-9.37622a23.88124 23.88124 0 0 0 1.37622-8v-240a23.88238 23.88238 0 0 0 -1.37622-8h9.37622a8.00917 8.00917 0 0 1 8 8z"/><path d="m72 135.20117h88v-16h-88a24.0275 24.0275 0 0 0 -24 24v176a24.0275 24.0275 0 0 0 24 24h336a24.0275 24.0275 0 0 0 24-24v-176a24.0275 24.0275 0 0 0 -24-24h-88v16h88a8.00917 8.00917 0 0 1 8 8v176a8.00917 8.00917 0 0 1 -8 8h-336a8.00917 8.00917 0 0 1 -8-8v-176a8.00917 8.00917 0 0 1 8-8z"/><path d="m296 423.201h16v16h-16z"/><path d="m328 423.201h16v16h-16z"/><path d="m240 40a23.711 23.711 0 0 0 -20.9502 12.293l-124.73046 223.20114a23.999 23.999 0 0 0 20.95019 35.707h249.46094a23.999 23.999 0 0 0 20.95019-35.707l-124.73046-223.20114a23.711 23.711 0 0 0 -20.9502-12.293zm131.62988 251.25a7.86511 7.86511 0 0 1 -6.89941 3.95117h-249.46094a8.00008 8.00008 0 0 1 -6.9834-11.90234l124.73047-223.20117a7.99953 7.99953 0 0 1 13.9668 0l124.73047 223.20117a7.86724 7.86724 0 0 1 -.08399 7.95117z"/><path d="m240 231.20117a24 24 0 1 0 24 24 24.0275 24.0275 0 0 0 -24-24zm0 32a8 8 0 1 1 8-8 8.00917 8.00917 0 0 1 -8 8z"/><path d="m209.75977 130.19531a7.99894 7.99894 0 0 0 -1.56934 6.74121l16 72a8 8 0 0 0 7.80957 6.26465h16a8 8 0 0 0 7.80957-6.26465l16-72a8.00016 8.00016 0 0 0 -7.80957-9.73535h-48a8.00047 8.00047 0 0 0 -6.24023 2.99414zm44.26757 13.00586-12.44433 56h-3.166l-12.44433-56z"/></svg>