<?xml version="1.0" encoding="utf-8"?>
<!-- Generator: Adobe Illustrator 23.0.2, SVG Export Plug-In . SVG Version: 6.00 Build 0)  -->
<svg version="1.1" id="Calque_1" xmlns="http://www.w3.org/2000/svg" xmlns:xlink="http://www.w3.org/1999/xlink" x="0px" y="0px"
	 viewBox="0 0 547.5 542.5" style="enable-background:new 0 0 547.5 542.5;" xml:space="preserve">
<style type="text/css">
	.st0{fill:#216196;}
</style>
<g>
	<path class="st0" d="M12.36,269.44c0,142.22,118.83,257.51,265.38,257.51c42.4,0,81.88-9.44,117.44-26.6c0,0,0.67-0.33,0.31-0.98
		c-0.31-0.6-0.96-0.28-0.96-0.28c-27.31,10.42-56.46,15.91-87.57,15.91c-133.43,0-241.58-105.28-241.58-235.18
		S173.54,44.64,306.96,44.64c94.71,0,176.61,52.59,216.23,129.8c0,0,0.35,0.71,0.92,0.49c0.66-0.24,0.31-0.92,0.31-0.92
		C485.48,78.81,389.74,11.96,277.74,11.96C131.18,11.96,12.36,127.23,12.36,269.44"/>
	<path class="st0" d="M495.73,364.13v-32.27c-128.11,50.03-256.22-44.28-384.32-5.19c4.28,9.86,9.4,19.29,15.19,28.27
		C249.65,327.13,372.69,412.18,495.73,364.13"/>
	<path class="st0" d="M300.55,150.33v21.78c-28.6,7.14-60.99,21.53-97.49,46.45c-2.99-4.37-20.04-26.78-62.15-38.39
		c11.43,34.9,15.42,51.14,15.42,51.14s-3.98,16.25-15.42,51.15c43.96-12.14,60.65-36.08,62.5-38.9
		c182.3,121.64,262.81-13.83,262.81-13.83C421.17,160.28,300.55,150.33,300.55,150.33 M364.62,230.22
		c-0.07-15.58,11.04-28.64,25.9-31.7c-8.69,7.82-14.13,19.1-14.07,31.64c0.05,12.53,5.62,23.76,14.4,31.49
		C375.95,258.74,364.71,245.8,364.62,230.22 M419.91,233.46c-6.26,0.03-11.38-4.82-11.4-10.85c-0.03-6.02,5.02-10.94,11.3-10.96
		c6.27-0.03,11.39,4.83,11.41,10.85C431.25,228.53,426.18,233.44,419.91,233.46"/>
</g>
</svg>
